<svg xmlns="http://www.w3.org/2000/svg" version="1.1" xmlns:xlink="http://www.w3.org/1999/xlink" xmlns:svgjs="http://svgjs.dev/svgjs" width="1500" height="1500" viewBox="0 0 1500 1500"><rect width="1500" height="1500" fill="#262626"></rect><g transform="matrix(0.6666666666666666,0,0,0.6666666666666666,250,250)"><svg viewBox="0 0 280 280" data-background-color="#262626" preserveAspectRatio="xMidYMid meet" height="1500" width="1500" xmlns="http://www.w3.org/2000/svg" xmlns:xlink="http://www.w3.org/1999/xlink"><g id="tight-bounds" transform="matrix(1,0,0,1,0,0)"><svg viewBox="0 0 280 280" height="280" width="280"><g><svg viewBox="0 0 280 280" height="280" width="280"><g><svg viewBox="0 0 280 280" height="280" width="280"><g id="textblocktransform"><svg viewBox="0 0 280 280" height="280" width="280" id="textblock"><g><svg viewBox="0 0 280 280" height="280" width="280"><g transform="matrix(1,0,0,1,91.87435837444465,90.50252531694167)"><svg viewBox="0 0 96.2512832511107 98.99494936611666" height="98.99494936611666" width="96.2512832511107"><g id="icon-0"><svg xmlns="http://www.w3.org/2000/svg" xmlns:xlink="http://www.w3.org/1999/xlink" version="1.1" x="0" y="0" viewBox="1.3854691445134781 0 97.22897644610737 100.00051194216859" enable-background="new 0 0 100 100" xml:space="preserve" id="jxe-0" width="96.2512832511107" height="98.99494936611666" class="icon-jxe-0" data-fill-palette-color="accent"><path fill-rule="evenodd" clip-rule="evenodd" d="M34.299 89.102C18.86 84.527-25.674 64.976 24.795 0 52.086 18.521 62.602 34.817 64.549 48.283 51.495 52.958 42.508 62.047 43.628 78.491 36.518 61.582 30.94 38.196 28.547 23.615 27.347 40.648 29.86 70.944 34.299 89.102" fill="#03f8f3" data-fill-palette-color="accent"></path><path fill-rule="evenodd" clip-rule="evenodd" d="M51.772 93.184C48.014 82.738 40.207 48.778 98.54 50.65 100.252 103.998 71.996 102.029 59.164 98.428 64.476 88.088 71.314 78.756 79.967 70.877 69.352 76.754 59.899 84.209 51.772 93.184" fill="#03f8f3" data-fill-palette-color="accent"></path></svg></g></svg></g><g id="text-0"><path d="M0 97.449l1.318-3.85 23.042 7.887 4.728-13.815 3.841 1.314-6.047 17.666z" fill="#ffffff" data-fill-palette-color="primary"></path><path d="M34.464 54.595l7.188 4.787-7.741 11.621 3.876 2.582 7.741-11.62 3.251 2.165-7.74 11.621c-0.293 0.439-0.655 0.8-1.086 1.082-0.441 0.283-0.902 0.476-1.385 0.577-0.484 0.092-0.981 0.094-1.492 0.006-0.512-0.097-0.994-0.296-1.444-0.596v0l-11.063-7.37c-0.45-0.3-0.816-0.666-1.098-1.097-0.278-0.437-0.468-0.897-0.569-1.379-0.098-0.488-0.098-0.988-0.001-1.5 0.094-0.507 0.287-0.98 0.58-1.418v0l5.58-8.378c0.3-0.45 0.666-0.816 1.097-1.098 0.431-0.282 0.891-0.471 1.379-0.569 0.488-0.098 0.985-0.1 1.492-0.007 0.507 0.094 0.985 0.29 1.435 0.591zM32.304 57.838l-5.58 8.378 3.944 2.627 5.58-8.378z" fill="#ffffff" data-fill-palette-color="primary"></path><path d="M55.801 51.6l-3.481-4.006c-0.355-0.408-0.609-0.855-0.762-1.341-0.152-0.495-0.214-0.988-0.184-1.48 0.03-0.501 0.16-0.986 0.39-1.455 0.22-0.469 0.529-0.876 0.927-1.222v0l7.598-6.603-2.676-3.08-9.62 8.361-2.556-2.942 9.62-8.36c0.408-0.355 0.858-0.611 1.349-0.768 0.491-0.157 0.984-0.219 1.48-0.184 0.496 0.035 0.976 0.164 1.44 0.388 0.464 0.224 0.873 0.541 1.229 0.949v0l11.282 12.983-2.941 2.556-2.337-2.688c0.289 0.394 0.491 0.828 0.607 1.301 0.12 0.478 0.151 0.953 0.094 1.424-0.053 0.476-0.185 0.932-0.398 1.367-0.222 0.435-0.522 0.817-0.9 1.146v0l-4.665 4.053c-0.398 0.346-0.843 0.598-1.333 0.756-0.5 0.157-0.996 0.22-1.488 0.19-0.491-0.039-0.971-0.169-1.44-0.388-0.468-0.229-0.88-0.548-1.235-0.957zM55.254 45.044l3.481 4.006 7.598-6.603-3.481-4.006z" fill="#ffffff" data-fill-palette-color="primary"></path><path d="M85.804 6.847l-6.234 3.053 1.856 3.791 6.234-3.052 1.714 3.499-6.234 3.053 7.564 15.448-3.5 1.713-7.564-15.448-4.629 2.267-1.714-3.499 4.63-2.267-1.857-3.792c-0.238-0.486-0.37-0.986-0.396-1.501-0.023-0.508 0.048-1.003 0.212-1.482 0.164-0.48 0.415-0.915 0.751-1.305 0.336-0.391 0.741-0.702 1.215-0.934v0l6.234-3.052z" fill="#ffffff" data-fill-palette-color="primary"></path><path d="M119.001 6.238l-9.837 2.136 2.821 12.99 9.837-2.136-0.756-3.48 3.808-0.827 0.756 3.481c0.115 0.529 0.124 1.05 0.028 1.562-0.098 0.506-0.281 0.968-0.551 1.386-0.271 0.412-0.615 0.77-1.033 1.076-0.42 0.299-0.894 0.506-1.423 0.62v0l-9.837 2.136c-0.516 0.112-1.026 0.119-1.532 0.021-0.514-0.103-0.979-0.286-1.397-0.548-0.412-0.271-0.77-0.615-1.076-1.033-0.3-0.426-0.508-0.904-0.622-1.433v0l-2.821-12.991c-0.115-0.529-0.123-1.046-0.025-1.552 0.104-0.507 0.288-0.969 0.55-1.386 0.269-0.418 0.617-0.778 1.043-1.078 0.42-0.299 0.887-0.504 1.403-0.616v0l9.838-2.136c0.529-0.115 1.046-0.123 1.552-0.026 0.506 0.098 0.968 0.281 1.386 0.551 0.418 0.269 0.777 0.614 1.076 1.033 0.299 0.42 0.506 0.894 0.62 1.423v0l0.758 3.491-3.808 0.826z" fill="#ffffff" data-fill-palette-color="primary"></path><path d="M140.222 18.102l0.285-5.3c0.029-0.54 0.157-1.038 0.385-1.493 0.235-0.462 0.534-0.859 0.897-1.192 0.37-0.339 0.801-0.597 1.292-0.774 0.484-0.184 0.99-0.262 1.516-0.234v0l10.052 0.54 0.219-4.074-12.727-0.683 0.209-3.891 12.727 0.683c0.54 0.029 1.042 0.158 1.503 0.386 0.462 0.228 0.859 0.527 1.192 0.897 0.332 0.37 0.587 0.797 0.764 1.281 0.177 0.484 0.251 0.996 0.223 1.536v0l-0.922 17.176-3.891-0.209 0.191-3.557c-0.067 0.484-0.223 0.936-0.469 1.357-0.246 0.427-0.554 0.79-0.922 1.089-0.369 0.305-0.781 0.541-1.238 0.706-0.462 0.158-0.944 0.224-1.443 0.196v0l-6.171-0.331c-0.527-0.028-1.021-0.156-1.483-0.384-0.468-0.235-0.869-0.534-1.202-0.898-0.326-0.37-0.581-0.797-0.765-1.281-0.177-0.49-0.251-1.006-0.221-1.546zM144.388 13.01l-0.285 5.3 10.052 0.54 0.285-5.3z" fill="#ffffff" data-fill-palette-color="primary"></path><path d="M187.706 13.651l-7.655-2.481-5.303 16.362-3.697-1.198 6.504-20.069 3.697 1.198-1.148 3.543c0.186-0.487 0.449-0.914 0.789-1.281 0.339-0.367 0.728-0.656 1.167-0.87 0.439-0.213 0.906-0.339 1.402-0.377 0.496-0.038 0.998 0.025 1.507 0.189v0l3.938 1.277c0.515 0.167 0.963 0.419 1.345 0.756 0.381 0.337 0.689 0.728 0.921 1.173 0.233 0.445 0.372 0.924 0.42 1.437 0.047 0.513-0.013 1.027-0.18 1.542v0l-1.101 3.398-3.707-1.201z" fill="#ffffff" data-fill-palette-color="primary"></path><path d="M221.025 31.921l-4.588 7.317-11.83-7.419-2.474 3.946 11.829 7.419-2.075 3.309-11.83-7.418c-0.447-0.28-0.817-0.632-1.11-1.056-0.296-0.433-0.501-0.889-0.616-1.368-0.105-0.481-0.121-0.978-0.047-1.49 0.083-0.515 0.269-1.001 0.556-1.46v0l7.063-11.263c0.288-0.459 0.643-0.834 1.066-1.127 0.429-0.29 0.883-0.492 1.363-0.607 0.485-0.111 0.985-0.125 1.499-0.042 0.509 0.08 0.987 0.26 1.434 0.54v0l8.529 5.348c0.459 0.288 0.834 0.643 1.128 1.067 0.293 0.424 0.496 0.878 0.606 1.362 0.111 0.485 0.127 0.982 0.048 1.491-0.08 0.509-0.263 0.993-0.551 1.451zM217.723 29.851l-8.528-5.348-2.517 4.015 8.528 5.348z" fill="#ffffff" data-fill-palette-color="primary"></path><path d="M263.493 64.007l2.083 3.483-18.763 23.987-2.083-3.483 4.318-5.514-6.582-11.009-6.901 1.194-2.083-3.484zM260.002 68.47l-13.247 2.246 4.978 8.326z" fill="#ffffff" data-fill-palette-color="primary"></path><path d="M270.989 96.273l1.242 3.693-19.996 6.725-1.242-3.694zM274.781 94.783l3.848-1.293 1.371 4.078-3.847 1.294z" fill="#ffffff" data-fill-palette-color="primary"></path><path d="M34.314 170.74l1.358 3.943-23.678 8.158 4.892 14.199-3.952 1.362-6.251-18.142z" fill="#ffffff" data-fill-palette-color="primary"></path><path d="M46.05 218.252l-7.38 4.937-7.99-11.943-3.981 2.663 7.99 11.943-3.34 2.234-7.99-11.943c-0.301-0.45-0.502-0.938-0.602-1.465-0.097-0.521-0.095-1.031 0.003-1.528 0.104-0.501 0.301-0.974 0.589-1.42 0.284-0.451 0.66-0.832 1.127-1.144v0l11.361-7.6c0.467-0.312 0.963-0.514 1.488-0.605 0.521-0.097 1.031-0.095 1.528 0.003 0.503 0.095 0.977 0.286 1.422 0.575 0.449 0.294 0.824 0.666 1.125 1.115v0l5.755 8.603c0.312 0.467 0.517 0.961 0.613 1.483 0.097 0.521 0.093 1.033-0.011 1.533-0.095 0.503-0.286 0.977-0.575 1.423-0.288 0.445-0.666 0.824-1.132 1.136zM43.815 214.912l-5.755-8.603-4.048 2.708 5.755 8.603z" fill="#ffffff" data-fill-palette-color="primary"></path><path d="M47.053 238.501l3.572-4.128c0.363-0.419 0.786-0.743 1.269-0.969 0.473-0.226 0.964-0.36 1.474-0.402 0.51-0.042 1.018 0.018 1.524 0.178 0.515 0.159 0.977 0.416 1.386 0.77v0l7.827 6.773 2.743-3.169-9.907-8.572 2.63-3.039 9.906 8.572c0.425 0.367 0.752 0.79 0.984 1.267 0.231 0.477 0.363 0.971 0.394 1.483 0.042 0.51-0.018 1.018-0.177 1.523-0.16 0.506-0.424 0.971-0.792 1.396v0l-11.573 13.375-3.039-2.63 2.404-2.778c-0.363 0.357-0.777 0.629-1.243 0.817-0.466 0.187-0.945 0.291-1.438 0.312-0.488 0.016-0.971-0.057-1.448-0.219-0.472-0.158-0.902-0.405-1.291-0.741v0l-4.811-4.164c-0.409-0.354-0.732-0.772-0.968-1.254-0.231-0.477-0.365-0.969-0.402-1.474-0.032-0.511 0.032-1.019 0.192-1.525 0.155-0.51 0.416-0.977 0.784-1.402zM53.649 236.989l-3.573 4.129 7.828 6.772 3.572-4.128z" fill="#ffffff" data-fill-palette-color="primary"></path><path d="M99.459 246.292l-6.413-3.124-1.902 3.904 6.413 3.124-1.76 3.613-6.413-3.124-7.746 15.901-3.612-1.76 7.746-15.901-4.762-2.32 1.759-3.612 4.762 2.319 1.903-3.904c0.243-0.499 0.564-0.918 0.962-1.258 0.402-0.346 0.85-0.602 1.345-0.767 0.488-0.168 0.997-0.24 1.527-0.216 0.53 0.025 1.041 0.157 1.534 0.397v0l6.413 3.124z" fill="#ffffff" data-fill-palette-color="primary"></path><path d="M122.261 260.496l-10.118-2.182-2.881 13.362 10.118 2.181 0.772-3.581 3.928 0.848-0.772 3.58c-0.118 0.549-0.331 1.039-0.639 1.472-0.308 0.432-0.679 0.788-1.113 1.068-0.426 0.275-0.899 0.464-1.419 0.566-0.52 0.102-1.055 0.094-1.604-0.024v0l-10.118-2.182c-0.529-0.114-1.013-0.326-1.452-0.635-0.432-0.308-0.785-0.675-1.06-1.101-0.273-0.433-0.461-0.909-0.564-1.429-0.109-0.522-0.104-1.057 0.015-1.606v0l2.881-13.362c0.118-0.549 0.335-1.039 0.649-1.469 0.308-0.432 0.675-0.785 1.1-1.06 0.427-0.282 0.901-0.473 1.422-0.576 0.527-0.101 1.055-0.094 1.584 0.02v0l10.118 2.182c0.549 0.118 1.039 0.331 1.471 0.639 0.432 0.308 0.785 0.678 1.059 1.11 0.282 0.427 0.473 0.901 0.575 1.422 0.102 0.52 0.094 1.055-0.024 1.604v0l-0.772 3.581-3.928-0.847z" fill="#ffffff" data-fill-palette-color="primary"></path><path d="M140.988 275.201l-0.302-5.451c-0.031-0.554 0.049-1.08 0.238-1.579 0.183-0.491 0.443-0.929 0.782-1.313 0.338-0.385 0.744-0.695 1.219-0.931 0.481-0.243 0.992-0.38 1.532-0.41v0l10.335-0.571-0.232-4.185-13.08 0.723-0.222-4.012 13.081-0.723c0.561-0.031 1.09 0.045 1.588 0.227 0.498 0.183 0.936 0.446 1.314 0.792 0.385 0.338 0.695 0.744 0.931 1.219 0.236 0.475 0.37 0.992 0.401 1.553v0l0.975 17.66-4.012 0.222-0.203-3.668c-0.013 0.509-0.121 0.993-0.326 1.451-0.205 0.459-0.477 0.867-0.817 1.224-0.34 0.351-0.737 0.634-1.193 0.848-0.449 0.215-0.93 0.336-1.443 0.365v0l-6.353 0.351c-0.54 0.03-1.063-0.046-1.567-0.229-0.498-0.183-0.936-0.443-1.314-0.781-0.378-0.345-0.685-0.755-0.921-1.23-0.243-0.474-0.38-0.992-0.411-1.552zM144.679 269.529l0.301 5.451 10.334-0.571-0.301-5.451z" fill="#ffffff" data-fill-palette-color="primary"></path><path d="M183.898 253.238l-7.864 2.561 5.478 16.818-3.802 1.238-6.722-20.639 3.802-1.238 1.187 3.647c-0.14-0.517-0.179-1.03-0.117-1.541 0.061-0.511 0.212-0.987 0.452-1.428 0.232-0.446 0.543-0.835 0.933-1.168 0.39-0.333 0.845-0.585 1.365-0.754v0l4.043-1.317c0.534-0.174 1.062-0.236 1.584-0.185 0.522 0.051 1.016 0.192 1.482 0.424 0.458 0.228 0.863 0.541 1.213 0.939 0.35 0.398 0.612 0.864 0.787 1.398v0l1.134 3.483-3.821 1.245z" fill="#ffffff" data-fill-palette-color="primary"></path><path d="M214.246 236.232l4.725 7.518-12.166 7.646 2.549 4.055 12.165-7.646 2.139 3.402-12.166 7.647c-0.458 0.288-0.952 0.475-1.482 0.559-0.524 0.082-1.033 0.066-1.527-0.046-0.498-0.118-0.965-0.328-1.403-0.629-0.442-0.297-0.813-0.683-1.111-1.159v0l-7.274-11.573c-0.299-0.475-0.486-0.977-0.562-1.504-0.082-0.524-0.066-1.033 0.047-1.528 0.109-0.5 0.314-0.969 0.615-1.405 0.307-0.44 0.689-0.805 1.147-1.093v0l8.763-5.508c0.475-0.299 0.975-0.489 1.499-0.57 0.524-0.082 1.035-0.063 1.533 0.055 0.5 0.109 0.969 0.314 1.405 0.615 0.437 0.301 0.805 0.689 1.104 1.164zM210.843 238.371l-8.763 5.508 2.592 4.124 8.763-5.508z" fill="#ffffff" data-fill-palette-color="primary"></path><path d="M232.317 197.307l2.148-3.588 30.861 5.349-2.143 3.578-7.101-1.236-6.777 11.319 4.443 5.676-2.142 3.578zM238.063 198.298l8.482 10.921 5.129-8.567z" fill="#ffffff" data-fill-palette-color="primary"></path><path d="M250.645 176.948l1.288-3.806 20.56 6.958-1.288 3.807zM246.62 175.8l-3.951-1.337 1.418-4.191 3.951 1.337z" fill="#ffffff" data-fill-palette-color="primary"></path><path d="M0.373 139.928c0-6.166 4.998-11.164 11.164-11.164 6.166 0 11.164 4.998 11.164 11.164 0 6.166-4.998 11.164-11.164 11.164-6.166 0-11.164-4.998-11.164-11.164z" fill="#ffffff" data-fill-palette-color="primary"></path><path d="M256.097 139.928c0-6.166 4.998-11.164 11.164-11.164 6.166 0 11.164 4.998 11.164 11.164 0 6.166-4.998 11.164-11.164 11.164-6.166 0-11.164-4.998-11.164-11.164z" fill="#ffffff" data-fill-palette-color="primary"></path></g><g id="text-1"></g></svg></g></svg></g></svg></g><g></g></svg></g><defs></defs></svg><rect width="280" height="280" fill="none" stroke="none" visibility="hidden"></rect></g></svg></g></svg>